<mxfile host="65bd71144e">
    <diagram name="Page-1" id="82e54ff1-d628-8f03-85c4-9753963a91cd">
        <mxGraphModel dx="1264" dy="929" grid="1" gridSize="10" guides="1" tooltips="1" connect="1" arrows="1" fold="1" page="1" pageScale="1" pageWidth="1100" pageHeight="850" background="none" math="0" shadow="0">
            <root>
                <mxCell id="0"/>
                <mxCell id="1" parent="0"/>
                <mxCell id="4ec97bd9e5d20128-1" value="" style="line;strokeWidth=15;html=1;fillColor=none;fontSize=28;fontColor=#004D99;strokeColor=#004D99;" parent="1" vertex="1">
                    <mxGeometry x="60" y="560" width="1000" height="10" as="geometry"/>
                </mxCell>
                <mxCell id="4ec97bd9e5d20128-5" value="Stage 1" style="shape=offPageConnector;whiteSpace=wrap;html=1;fillColor=#0075E8;fontSize=15;fontColor=#FFFFFF;size=0.5093750000000015;verticalAlign=top;strokeColor=none;" parent="1" vertex="1">
                    <mxGeometry x="140" y="500" width="160" height="40" as="geometry"/>
                </mxCell>
                <mxCell id="4ec97bd9e5d20128-6" value="&lt;span&gt;Stage 3&lt;/span&gt;" style="shape=offPageConnector;whiteSpace=wrap;html=1;fillColor=#0075E8;fontSize=15;fontColor=#FFFFFF;size=0.5093750000000015;verticalAlign=top;strokeColor=none;sketch=0;shadow=10;" parent="1" vertex="1">
                    <mxGeometry x="593" y="500" width="160" height="40" as="geometry"/>
                </mxCell>
                <mxCell id="4ec97bd9e5d20128-7" value="&lt;span&gt;Stage 2&lt;/span&gt;" style="shape=offPageConnector;whiteSpace=wrap;html=1;fillColor=#0075E8;fontSize=15;fontColor=#FFFFFF;size=0.4178571428571445;flipV=1;verticalAlign=bottom;strokeColor=none;spacingBottom=4;" parent="1" vertex="1">
                    <mxGeometry x="367" y="585" width="160" height="35" as="geometry"/>
                </mxCell>
                <mxCell id="4ec97bd9e5d20128-8" value="&lt;span&gt;Stage 4&lt;/span&gt;" style="shape=offPageConnector;whiteSpace=wrap;html=1;fillColor=#0075E8;fontSize=15;fontColor=#FFFFFF;size=0.4178571428571445;flipV=1;verticalAlign=bottom;strokeColor=none;spacingBottom=4;shadow=5;" parent="1" vertex="1">
                    <mxGeometry x="860" y="585" width="160" height="35" as="geometry"/>
                </mxCell>
                <mxCell id="4ec97bd9e5d20128-9" value="" style="ellipse;whiteSpace=wrap;html=1;fillColor=#FFFF99;fontSize=28;fontColor=#004D99;strokeWidth=3;strokeColor=#004D99;" parent="1" vertex="1">
                    <mxGeometry x="210" y="555" width="20" height="20" as="geometry"/>
                </mxCell>
                <mxCell id="4ec97bd9e5d20128-10" value="" style="ellipse;whiteSpace=wrap;html=1;fillColor=#FFFF99;fontSize=28;fontColor=#004D99;strokeWidth=3;strokeColor=#004D99;" parent="1" vertex="1">
                    <mxGeometry x="437" y="555" width="20" height="20" as="geometry"/>
                </mxCell>
                <mxCell id="4ec97bd9e5d20128-11" value="" style="ellipse;whiteSpace=wrap;html=1;fillColor=#FFFF66;fontSize=28;fontColor=#004D99;strokeWidth=3;strokeColor=#004D99;" parent="1" vertex="1">
                    <mxGeometry x="663" y="555" width="20" height="20" as="geometry"/>
                </mxCell>
                <mxCell id="4ec97bd9e5d20128-13" value="" style="ellipse;whiteSpace=wrap;html=1;fillColor=#FFFF66;fontSize=28;fontColor=#004D99;strokeWidth=3;strokeColor=#004D99;" parent="1" vertex="1">
                    <mxGeometry x="930" y="555" width="20" height="20" as="geometry"/>
                </mxCell>
                <mxCell id="4ec97bd9e5d20128-14" value="&lt;h1&gt;&lt;span style=&quot;background-color: initial;&quot;&gt;JavaScript, HTML, CSS&lt;/span&gt;&lt;/h1&gt;&lt;div style=&quot;text-align: left;&quot;&gt;&lt;ul&gt;&lt;li&gt;&lt;span style=&quot;background-color: initial;&quot;&gt;Get certified in Codecademy&lt;/span&gt;&lt;/li&gt;&lt;li&gt;&lt;span style=&quot;background-color: initial;&quot;&gt;Make some small projects&lt;/span&gt;&lt;/li&gt;&lt;/ul&gt;&lt;/div&gt;" style="text;html=1;spacing=5;spacingTop=-20;whiteSpace=wrap;overflow=hidden;strokeColor=#6c8ebf;strokeWidth=3;fillColor=#FFFF99;fontSize=13;align=center;rounded=1;fontColor=#000000;" parent="1" vertex="1">
                    <mxGeometry x="113" y="590" width="227" height="140" as="geometry"/>
                </mxCell>
                <mxCell id="4ec97bd9e5d20128-16" value="&lt;h1&gt;&lt;font&gt;Learn Smart Contracts&lt;/font&gt;&lt;/h1&gt;&lt;div style=&quot;text-align: left&quot;&gt;&lt;ul&gt;&lt;li&gt;&lt;font&gt;Learn Solidity programming language&lt;/font&gt;&lt;/li&gt;&lt;li&gt;&lt;font&gt;Get certified *&lt;/font&gt;&lt;/li&gt;&lt;/ul&gt;&lt;/div&gt;" style="text;html=1;spacing=5;spacingTop=-20;whiteSpace=wrap;overflow=hidden;strokeColor=#6c8ebf;strokeWidth=3;fillColor=#FFFF99;fontSize=13;align=center;rounded=1;fontColor=#000000;" parent="1" vertex="1">
                    <mxGeometry x="339" y="380" width="215" height="150" as="geometry"/>
                </mxCell>
                <mxCell id="4ec97bd9e5d20128-17" value="&lt;h1&gt;&lt;span style=&quot;background-color: initial;&quot;&gt;Blockchain Developer&lt;/span&gt;&lt;br&gt;&lt;/h1&gt;&lt;div style=&quot;text-align: left;&quot;&gt;&lt;ul&gt;&lt;li&gt;Get certified&lt;/li&gt;&lt;/ul&gt;&lt;/div&gt;" style="text;html=1;spacing=5;spacingTop=-20;whiteSpace=wrap;overflow=hidden;strokeColor=#6c8ebf;strokeWidth=3;fillColor=#FFFF99;fontSize=13;align=center;rounded=1;fontColor=#000000;" parent="1" vertex="1">
                    <mxGeometry x="565" y="590" width="215" height="120" as="geometry"/>
                </mxCell>
                <mxCell id="4ec97bd9e5d20128-18" value="&lt;p style=&quot;line-height: 0.5&quot;&gt;&lt;/p&gt;&lt;h1 style=&quot;font-size: 21px&quot;&gt;&lt;font style=&quot;font-size: 21px&quot;&gt;Demo&amp;nbsp;&lt;/font&gt;CrawlBlocks&lt;/h1&gt;&lt;p style=&quot;font-size: 21px&quot;&gt;&lt;/p&gt;&lt;ul&gt;&lt;li style=&quot;text-align: left&quot;&gt;Working protocol&lt;/li&gt;&lt;/ul&gt;&lt;p&gt;&lt;/p&gt;&lt;p&gt;&lt;/p&gt;" style="text;html=1;spacing=5;spacingTop=-20;whiteSpace=wrap;overflow=hidden;strokeColor=#6c8ebf;strokeWidth=3;fillColor=#FFFF99;fontSize=13;align=center;rounded=1;fontColor=#000000;" parent="1" vertex="1">
                    <mxGeometry x="816.5" y="410" width="247" height="120" as="geometry"/>
                </mxCell>
                <mxCell id="aNSM55YKIl1LYIPz-pdJ-2" value="Small implementations in CrawlBlocks" style="shape=step;perimeter=stepPerimeter;whiteSpace=wrap;html=1;fixedSize=1;fontSize=18;fillColor=#1ba1e2;strokeColor=#006EAF;fontStyle=1;fontFamily=Verdana;fontColor=#ffffff;shadow=1;" parent="1" vertex="1">
                    <mxGeometry x="60" y="230" width="1000" height="30" as="geometry"/>
                </mxCell>
                <mxCell id="aNSM55YKIl1LYIPz-pdJ-4" value="Content creation for YouTube Channel 🏃‍♂️" style="shape=step;perimeter=stepPerimeter;whiteSpace=wrap;html=1;fixedSize=1;fontSize=18;fillColor=#1ba1e2;strokeColor=#006EAF;fontStyle=1;fontFamily=Verdana;fontColor=#ffffff;shadow=1;" parent="1" vertex="1">
                    <mxGeometry x="60" y="269" width="1000" height="30" as="geometry"/>
                </mxCell>
                <mxCell id="aNSM55YKIl1LYIPz-pdJ-6" value="&lt;font data-font-src=&quot;https://fonts.googleapis.com/css?family=Passion+One&quot; face=&quot;Passion One&quot; style=&quot;font-size: 81px;&quot;&gt;CrawlBlocks Project Path&lt;/font&gt;" style="text;html=1;strokeColor=#006EAF;fillColor=#1ba1e2;align=center;verticalAlign=middle;whiteSpace=wrap;rounded=1;fontFamily=Verdana;fontSize=13;fontColor=#ffffff;perimeterSpacing=0;strokeWidth=7;arcSize=50;glass=0;shadow=-1;" parent="1" vertex="1">
                    <mxGeometry x="130" y="40" width="840" height="140" as="geometry"/>
                </mxCell>
                <mxCell id="aNSM55YKIl1LYIPz-pdJ-7" value="&lt;font style=&quot;font-size: 13px;&quot;&gt;Updated on 29-07-2022&lt;/font&gt;" style="text;html=1;align=center;verticalAlign=middle;rounded=0;fontFamily=Verdana;fontSize=81;fontColor=#66B2FF;spacing=1;whiteSpace=wrap;" parent="1" vertex="1">
                    <mxGeometry x="870" y="700" width="180" height="120" as="geometry"/>
                </mxCell>
                <mxCell id="aNSM55YKIl1LYIPz-pdJ-11" value="" style="shape=image;verticalLabelPosition=bottom;labelBackgroundColor=default;verticalAlign=top;aspect=fixed;imageAspect=0;image=data:image/png,iVBORw0KGgoAAAANSUhEUgAAAYIAAAH8CAYAAADc0qg4AAA4kklEQVR42u2dCZgU1bm/2zXm3qi5CYkyXTX0dJ2awUFAHRdcQCLGNSpiosQtbiAuwSVucU+MGk0Q9w1Fg5q4gBriGjUihLjgFhVUBFFRQaa7evZhlu66dZoBWWap6u7qruX9Pc/7/J/7D051n+X7dX3nfOdEIgghhBBCfpIZiWzyTUXFNoYSH5xUxX6GIo5Jqtp5RlT/QyIqbkso4qGkoj+dVMRci3et//0T6//93KLOotnCtEFz17//vOu/f7fr7z0j/758jqGKq7PPzT5ffo744BWx2Lby89FLCCGUX6DfONW/YkAiGh9lBfcJVuD9Y1LR/pqM6nO6AnqHzWBeKjqzn1MV/7Y+89/k589+D+v7yO8lvx+9jBBCMuBXV29uKBVDDFUbm4xqv7d+xT9uBfyPrCDa5vFAny9t8ntabxJPyu8tv79sB9kejAqEUGBV269qy5Sqj0hGxdlWAJxmBcP3un45m7DOm8R7q9pHP0u2l2w3Rg9CyJepnWS5qLaC2ikWd1t8YJEh0OdEpqv97s62p9WupJYQQl4M/JvUlms1Xb/2n7QClkEAdxVjVVpJnJ0qEzuyOI0QKonqyvW4XABdldfP7q4hQJeOOtkPsj9kvzA6EULu/OoX4jtJRTvA+iV6qxV4FhN8Pc3iVf2kHSD7jdGLEMpZ9cqgHyRV/UQrqDxhBZcmAqwvacr2n9WPsj8Z1QihPrV8G+3Hq1I+4iWLNIE0UHQkFf1F2b+ynxntCKE1MuLxrbt2+BD8w0O6q79Plv3PLEAohJLFSwlFH9O12NtGYAw1sv+nJxTtcIraEArDr3+lYkhS0W60Jn6CAAjdUJtUxWR5bhKzBaEAacWPqr+XjGrjk1HxJoEOHDDP+tEwbvk2Q/6XWYSQTyWrUA1F3GJN6AaCGuRBvaHoN8vxxKxCyA+5/0hk44SqjbYM4GUCGBQaOa5qVXEox1wg5NH0T0LRJyYUsYiABUUwhE8SinamHHfMPoRKrOy+f1VcwzEPUCJS8oKehrLKfsxGhIqsVGxgTN6SZU3EVoIReIBWuR5l9I+XMzsRcjsFpGgiqer3c5Y/ePZOBWt8ynHKbEUIAwAMAUNAqBBKRoViTap7MADw8a1rd9eqVWXMZoQcqiE68IdJRf8TawAQlDWEhKJdV1de/n/MboT60FJF+W4iKn7LLiAI6iU6hqJfwD0JCHUjMxLZyFC1sdZE+YxgAYEnqi1JRsWRctwz+xGylFD03azJ8SoBAkLI3IRSuStRAIVWshjM+lU0lWAAISdjMYWiNBSyNNDITROqOENWZRIEANZgGKo43YxENiFKoECrVo3vnFDE20x6gB7OMVLFW7X9xU5ECxQ4Ze8EWHUhDFdBAtgqSBM3cBcCCoyMqH6wNbC/YHIDOOZzQ4kfRBRBvlUqFvt+17EQTGiAfLDmkZxPRBXkK8nLYawB/BWTGKBgfCXfrokuyPNKCrEVbwEAbhajiam1/aq2JNogb6aCVH0ElcEAReFTo0zbk6iDPCOzpmazhCL+yI4ggKKSlrejyflHFEIlVZ0qtKSiv8GkBCgZr9YNqKogGqHSrAeo2lHWIKxnIgKU/u7kZFT8nKiEiqYlsdgW8rINJh+A17aZandyxDVyPxVUrsc5IgLA08xLxQbGiFbIFRlR/WccFAfgkwPsFO1AohYq3K6gSGSjZFS7iskF4Lvjra/k8huUt2ThSkIVM5lUAD49zVQRT8hDH4lmKCetUDSRjIoFTCYA3/OBXN8jqiFHSkTjo1gPAAjWukGtIkYS3ZAtJRVtnDVo2pk4AIGjPaHqJxDlUK+LwglFu47JAhD4W9CuYREZbaCuIrHpTBKAsBSfiUfM6urNiX4oq+wFMoo2m8kBEC4SiphlxONbEwXDvh4QFYrcUcCkAAgt7yWUyijRMKwmUC6qrUHwJRMBIPR8URuNVxIVQ6bacq3G6vxaJgAAdFGbilYOJTqGZU1g1U1iHB8NAOtTnyzT9iBKBlzyICqrs1sY8ADQAy2JqLYP0TKo6SBVHEqhGADYMQN52jBRExMAgJBXIcu4QfTEBAAAM8AMMAEAwAwwA//WCahiP0wAAFhADqlkp7E7CAAwg7CagKLvhgkAgBt1BgmlcleirNfrBFRte6uzkgxYAHCrAjlRVjmQaOtRpWIDY5wdBABF4Et5YCVR12Nq3Fb8yFDEJwxQACgO2kcNZZX9iL4e0ddlZf9jdcxrDEwAKDL/kfGHKFximZHIJkZU/J0BCQAlejOYIeMQ0bik20TFbQxEACixGdxENC5ZwZj2GwYg9EX97oeYLRdeZ3Y88byZnr/QNOsbzTXq6DTTX35jdv77TbPtlr+YTcdMNI34DrQbOCahaL8mKhd7m2hUP9hq/DQD0D6Nh48zHSmdNlP6zgV5dtvN9zt79Bv/zet5Kb3GbLnoejO96DPTqTKtK82OGc+aDfsd40o/rLz6Vkefx+vPgTWk5TH3ROdimYASH2w1egMDzyEDtjMzRr2j4ND8q3MK8uz0x586eq4M4rk8x4gNMluvmGyadY1mIdQ563WzYcQYjADsF5wN0LcjShdhm6jV2J8x4HL8Zf6XGY6CQ/sDT+T9zLqhoxwH4LohIx0/Rwbs9IJPzIKrM22uvP4u0xhQjRFA30S1JQ3RgT8kWru2Q2jkpoYiXmawFS89lFmeMJNqZV7PbDnrd66nhZpPPt/MrGwz3VTn7HlmqnI3jADs8BI7idxaHFa0GxlgxU8PNew1Oq9ndsx8ydW0kFOjyUdysTk1cBhGADbeDMQkonbht4kex+AqUHronocdBYjWyyfn/CyZTjEbmx28gmTMukHDHb0JFFud731kGvGhGAH0Pf4V/Wiid4GUilYOtRq1lYFVoPTQz050Fvj+/WbOz2o4+ARnz5r7lv2/bb2pyB0+pVD7o09jBGDr6Gq5uYUonqdq+1VtyRlCBaa8ysysMBwtlsrtmDm9fdw41dnbx2+utp3iSn+w0Cylct1RhRGE70wiGceI5nmtC4jpDKTSp4eajj0rt22jTnbxOEgLtfz2erPUkgvpuRSfYQShXC94mGie67qAok9kEHkjPdQ2bYbzbaNDRrqSFjIqBpuZRMr0glou/hNGAPYqj1VxBlHdaUqov9jJarw2BpA30kPpr75xvm309MtcSQu1TLwyv1/yyToz/dYHWeNJL1ySraDOeReRbBerLTECsEGbXO8kutvUih9Vf89qtI8ZOO7SfvffnG0j3eNQZ9tG//6is+Msqveyl256/d0cInbabH/wSbNh7yPMpLpu4E5V7mK2nHG5mVmyNCczaBx9CkYAdvlw+TZD/pcob29d4F4GjPs07H+ss1/sl05yVK9gNjTZTwu9/Jq9dNPgEc4jdV2j2XDQ8bZSTnI3kFO13T8dIwAn3E2U78sEVO0oBkqRsH4ZZ75e4aiy1rbJWIHXUa594pXu1A10prOG5yRl1vHcbGeppk+/wAjA6eLxz4n2PS4OV0atRjIYKEXcPXTHg/YjRUenaWg72QtCN9zjLC00cHdX0llttz/gfJF7++GO6xPsfn6MALpI1g7Yrj9Rf4NzhCIbWY3zHAPE2+mhpqN/bS+P72CPv920kET+W0dZoR1G5bZ+8uCTztZPHLx1YASwCv1pGfeI/mvJUMVpDAzvp4fapj7a9y/qQcNdSQtJMkuX2X/RWPRZzu3SfOJvnH2HCZdgBJDLSaXjif6rdwkpmrAapYmB4f30kAzEfW7vtIKiG2khiZN7BtofeSr3W812PsDZQvoF12IEkAtNdQOqKkgJWa9GHC1dWupHjXUUMOqHHdL7ttEnnre/7PDCXEef1e31gbW3lDoygj/cihFAPkdWhztFZET1UxkIpU4PVTpKucjjHXredTPQ0a/2ltMudc0IZCDMp13cehZGAN2cRzQuvCbQP16e5MpJb6SHbrrP/uLurNd7Xnw+4DhHu5DkL2+MACMAUSd3TYa0cEx7igHgw/RQe4dpaDt2H3z+fLd9H/jnvz0TnDECjMADZxHNDJ8JRMXP6Xz/poeajjy9++2d7y5wLS2EEWAEgTcDRTs8PCYgxFbWl/6KjvdveqhtysMbLrBW7+lqWggjwAhCwNLQ3F2QVLSb6HAPpof2Ocr+NtLPv9pw7/34i+37wPNzPBWcMQKMwDtv5+KGwJtAqkzsaH3ZNB3uTZycwFm/60Hrbhud/qzt/7b5lAswAowAuqcz0MdVdx0jMZeO9i4rJ02xn+O/8Lp17zdINdh7m2hrNw2xE0aAEUDP20lnB7a2wFD0o+lgj589NGKM/fTOv1799r/b7xj720+fnuW54IwRYARew1C1scE7RmLVZTMsEAcoPZT9ZV8xZFXQ+eMdrqeFMAKMIGR8GbhLbAxVXEPHBi891PiLCatOG317vutpIYwAIwjhoXRXBWeXUJmmWl+qlY4NXnqo/c6HsofGmZmM62khjAAjCCGtyahQAnLhjHiADvUX6U+W2PuF/9mXZvO4i+ynhU46DyPACMDRWoH4i+9NoLZcq7G+TIYO9Vl6yEHO3+4lNPLWLyO+A0aAEYAzMqmovoPPdwqJf9GRPiwu2/0Qs9DqePKfeX8ujAAjCCf6i/5dGyjXf0oH+jg9tHBJQY2g+YRzMQKMAHI9hyiq7ePT4jH9DTowHOmhYqSFMAKMIOS85r8FYlUbTceRHipkWggjwAg4qlob7ae3gY2TUbGAjiM9VMi0EEaAEYB4X8ZXnxSPaWPpsGDQ+vub83eBphbTqBiMEWAEEJajJ3gbCFh6aJcD8/aB9seeKdjnwQgwAhDveP5AOnnDDh0VsPTQ/IX5vRAcMxEjwAggLGsFXcdMv0NHkR5yIy2EEWAE4IO3AiOqH0wHkR5yKy2EEWAEsNZagRI/yKtXUM6mg0gPuZUWwggwAlgrPaSIWd4zgajYnc4JcHroisnOXaC+saBpIYwAI4D1zaByV4+9DeiP0zHBpW7HnzpPC/11ZsE/B0aAEcDaaDO8c/uYEtc5YTT4dL4z31la6MjTMAKMAFw+mbROFZpXThi9hQ4JwdlDf77bUWAxYoMwAowA3H8ruKn0KSEhtrI+TCOdEQIj8EBgwQgwAtiAhtp+VVuWepH4HDoCI8AIMAIoJfpZpT1OQhGL6QSMACPACKCkW0kXlewwuqQq9qcTMAKMACMAD6CK/Uq1SPwkHYARYAQYAYR0K2mtWlVmPbyTxscIMAKMADxBp4zLRS4gE1fS8BgBRoARgJfSQ/plxV4k/oyGxwgwAowAPERUW1K0ReNEND6KRscIMAKMADy4gyiq7VOky2fEgzQ4RoARYATgPQxFTCtWJXELDY4RYAQYAXiSZtcrjZOqOImGxggwAowAPL1ofKLbu4VeoqExAowAIwBPHznxotu1A2kaGSPACDAC8DTpFbHYtm4dMHc2DYwRYARFNgK1Mrf+uuY2jCDU5w/pE91KC71GA2MEfjGCttsfyPk5qcpdHD2r9Q/uGUGqcrecvkPbHQ9iBOHmtcKfK9Q/Xk7DYgQlN4K6RtvPb3/kqZyfU7/zAc6M4IJrbf/t1qtucfS362v2z+k7tD/8D/sPyWQY40HcSmrFbe4dgMAZQWbpMtvPT3+yJOfnNJ/4G0fftWXCJfaNwDINJ2r+1Tk5fYf0x5/af4hlsIzxQC4an1VgI9Dn0KgYQamNoPPl1xx9hrodRuX2a/rBJx09p2H/Y23/7abjznaW4pr6qOPPX7f9cEfPSH+4iDEeyCMn9DkFM4FvKiq2SXI5PUbgASNov/tvrq8TyCCaaV3pLI8/cHfbf79hz8Mc/W2zqcVM6Ts766vr73L0iI6ZLzDGA7p7aPk22o8L9DagjadBwQtG0Hzy+c6CaGfa0a/1ZHmV2fHcbEePyHz6hbPvUT4wG9ydSBqgbSPbYV/Hf7/1shsY48E9iG58Yc4WUsVMGhS8YAR1g0eYjlXXaDYcdHzfC2sVg832R592/Ofb7p/u+Ht0PD/H8XNar5jcd/sM/YmZXvy5479dv89RjPGgLhhHxd/zNoGlivJdzhYCLxUopV9/17kZpNPZvH/D3keYSbVqg62iLWdcbmaWLDVzUePoUxx/h5bTLs3pWR3/etVsOPC47JvLOt9h4O7ZX/VOdlWteaNZuiznWgXwx9lDS2KxLfK8jjJ+EA0JXjKClolXmvkok6wz0299YHbOfctML1ySNYlclf7qmw2Csq1faWInx+mbdX/CN5rpt+ebnf9520wv+iyv9lj5xzsY30F/K1C0A/O8e0DcRkOCl4xApnAyiZTpBbVc/Kecv0fbzfeX/PPLRfHUdnswvgNvBOLWfKuJF9OQ4LWza1p+e33pg+jyhGnEd8i9etkKwGZDU0m/w8ob7mFsh4PFOZtAXbkepwHBk4eYDdjOTH+wsKRBNNdCr3yKywqp9NLlpqHtyNgOCXUDqirYNgrBMgK5H3+v0Y73+xdKcndRQb6HWmV2vPSfErhA2tZOKggS2rhc00KP0XjgVSPIqa6gAOp87yPTiA8t2HeQO35kLUJR1zYuvI4xHT4ec2wCZiSysfUfGjQeeNkIsusFZ/2ueD+k5y+0Avewgn+H+p32M9NfflOcdYFJUxjP4SQp47ojI0hFK4fScOAHI1j9ZpBZ2ebum8DseTkfCW0rhyuLwZwcFOd4dTtDBXHodw9VDHG2bVTRzqThwC9GkF0zGDHGTC/4xAUHSGfP7jEGVLs/UbUdc6pu7tMDag2zccx4xnHIkXGd9QEItBFkA2lsUPYohlwqbLv1gFmvZw2m2N+j8RcTCrNuYJmYPL1UVk8zhiGpikec3j+wnIYDvxnBmgVYvcZsuej6nKpu5U6kjhnPOjuszg3KB5rNp1xgdr7m/EiNTKrBbL/zoezaA2MXvj2ATiy3f0l9NF5Jo0FQqN/9kOwumY4nns8u9srjGb49vKczu0jb+e83zbZb/mI2HTMxryIx19YPdtjXbDn792b7Y89kdy1ljPpvg/7KtmxNgLyroe3Gqdmzj+SbEX0P3bFCies2zxcSx9JgAACBPG7iGLtGcCsNBgAQ4nOHkor+Bg0GABBE9Df6NAF5brX1jztoLACAQNJuCvGdPuoHKneloQAAAlxPoMZ36X19IKqfSkMBAAR5G2kf9xgnVe1OGgoAIMhvBNodfVUUv0ZDAQAEmtd6O3F0E+sfNNNIAACBplnG+26NQFac0UAAAGGoMNZE9zuGVHEYDQQAEHxqVXFoTxXFF9FAAAChqDC+qCcjmEYDAQCEwgimdW8EqniLBgIACIERWPG+p62j9TQQ2MXutYqp7fZw7TM4vSOhTzU2Z2/z6nx3gdkx8wVz5bW3m41HnGoaYif/fIc8xLgOFfUbmEBDWWU/GgbsktJ3th1cmsae6fsgmmlrNzufnrXqu6hVGAEEgobowB+ufyPZMBoG7NJ4+DjbwWXlpCmB+jUt34TkVZIYAfj/qAkxjMtooCjBq3P2vECmVeRtYfKyeYwAfLxgfMz66wOX0zBgl44X5tqPLs2t2ft3g5hfT3+4yKwbvDdGAH7l8vWNYAqNArZQK02zrtFRgGkYfnhgF1ozn35hmcEIjAD8yJT1jeA5GgXsUL/rQY4DTMtZvwv0jpv0m++bxoBqjAD8xnPrLxYvoFHADi0TLnGeT3/o74Hfetl241SMAPzG/PXfCBppFLBD29RHnf9iXvRZ4I3A7Eyb9cN+hhGAn2hcYwK1/aq2pEHAdiHZBwtzCjKpyt2CbQTSC555BSMAXyHj/yojiMYraRCwtd1M29H6eZ/OrWj3iFMDbwRScg0FIwDfGIEV/1elhcq0PWgQsFVIdshJOQeZldfdWXIj6NHg4kPN1MBhZsOeh5nNJ59vtk2bYZoNTbnVF9z5UEm+A0BOWPG/a31AP4IGATu0XnljzkbQ8eJ/PGsE3R+jUWO23/VX59tJv17h6BgKjABKi37EqqriqD6BxgA7yBx4zrJ+YZf6nJ6cdklddL3zr/rTozEC8Ee614r/q94IVP0yGgTskEmk8sufDzvEd0aQraR+6mVHz2m9YjJGAD4pENUvW11DMIkGgT4LyWr2z3sxsuWMy31pBPW7H+IsDfb8HIwA/HLw3KTVNQT30iDQF3IRNe+iq/un+9IIsmmxdxfYXydYVosRgF+4t8sItBk0BvRF+91/y/8oho8W+9YIZOWwE9m9zAYjgNKizVj9RvASjQF9/iJ+Z34BTmjLFPS2r2IGUadvRA17H4ERgB94ibuKwd7Ogooh2SMUCqHGw072pRE0HHicKwV0GAGUdG6vvrvY+j/ep0Gg1yB4wHFmodR61S2+NIL6nfZztjA+4RKMAPzA+6uN4DMaA3otJLt0UsGMwMmOGi8FUVlg5sjwLrgWIwA/8Nnq7aPLaQzodR/9318s3EUuybrs5TaBN4Irb8QIwA/bR5evfiOoo0Gg10KyZbV9B/i2dlv/LltYtvMBvjOC5IDtnJ2tZH02jAB8QN1qI8jQGNATdUNH2dsa+tYHZsf0Z2392+bxF/vOCIzYYIwAgkhmtRHQGNDztslfnWOvWOy+x8zWy26w92+nPBz81NClkzAC8AUYAfRdSHXrNHu7ZM7+vdk4+hR7F7i895H/jKByFxaLASOAcJKe9569vP+osdkz/e3lkdKmEd/BX9tHdznQ2fbRU9k+ChgBBKHYJDYouwhsL7APXWUcX31jr/L2oOP9VVB28AnOCsoOH4cRAEYAASgks37lOz1DqPPpWfZSJ5dP9pURNI//rbMjt603CIwAMALwPS0XXmfvesaH//FtYLv2dnuFZU+97CsjaLv9AWeHzsUGYwTgKyNI0xjQbSGZze2gLb+9fs1/0/TLM+0Vln2T9JURpBcusX/K6oeLvFkLAbAhaQrKoPdCsqXL7OX7Dz5hrbqDn9gOanU77OsLI7CbIluzPfbeRzAC8F1BGUYAGxaSDRpuOzjJrZXrGIhRb6+w7KTzvG8EapXZOWeeo+c0n3IBRgC+M4KvaAxYn6Zjz7KX4vn8qw3+285Zr9v75XzHg942ArXSbJt8r8NT9To3MEaMADzMV6uN4GMaAzZYHLUZAOWBdBv8tzZv80q/+b5njUDe0dz5zCvOT1ed+ZKr36HQkhXTjPdQ8/FqI3iVxoANftX/5+2c7xewfZuX9evZqBhcNCOQtQs90TT2zOwZSCv/dJfZ+eo7uV+8c+hJGAH4iVe7jEB/msaAdRiwnZlpXWkrkDQdedqGv6Z3O9h+cN7vmKIZgduSBuK374ARhB396VVXVSpiGo0B6+yS2fsI+zt/th++4d8orzLN5lbHW099bQTptNkw/HCMAPx1eoAV/1e9EajiBhoE1qb13D/YWyiuNXred//Gf+1lh554PhBGsPKa23z5HTCCkGPF/6wRJFTtEhoE1qb9kafsBfEX5vb8N+7+mz0z+XqF741ALirLtyCMAPyGjP9dRqCfQIPAOnUAn35h71fwpCk9H09xxuX200uDR/jWCORWWaNiiG/NDCMIuxHoJ6wygmh8FA0Cq0kN3N1+4dSvzinIOkPT8Wf7MojKIzjyMQGMAEpuBFb8zxrBCiWu0yCwppDsyNPtn7BZs3/Pi1CxQdbP5bS9wrKb7/dVEJU7qlrPuzpbcFbs85IwAigkMv5njWBJLLYFDQJrAtOf7rK5Yb45e/xCrwe1fbDQXnrltXd9E0TTnyzJ+4wkjAC8goz/kdWy/j++oVHAyfEQnXPf6nvR+cEn7f3CXtlmGgOqfRFEMyuMnBeGMQLwGN9E1lZS0d+gUSC7/7+pxV465/YH+t6Gev419tNM+xzlmyDa+LMTS2YEjFMoYDHZG+sYAUVlkF3g3fMw2wGpZULfd/I2HHCc7b8nTaNkQVStMjPLE7b/Tts9D2MEEJxistWilgCyWz5/faX9oyH2Gt33QNN2sv332h99uqRBtG3qoyVJD2EEUPIagjVGoOhjaBhof+AJe4GwrT17HpGdv5le/Lm9v9nNcdbFDKKNPz+1JOkhjABKZgRW3F93jaBcVNMwYPc6xs53F9j+mx2PP2d/4bJ6z5IF0ex2V5vrI4VMD2EEULo1QVG9jhGYNTWbWf9DJ40T4kIyfWf7QfD+6fbPLbp8sv3CsrFnljSIynOPip0ewgigRHTKuB9ZX9b/8CGNE14ax4y3v1B8zlX2/+7h4+wf3HbDPSUNovKKyWKnhzACKBEfRrpTQhEP0TghLiS75rbSn9szZ15Jg6i8YtJuNXT2zSjPqzYxAijd+oB4qFsjSKraeTRQeJEniZZcza1msnxgSYOo3YK6NSenqlUYAfhw66h+fvdvBFFtHxoopFjBzKxr9MSRzg3Dx5Q0iDopgst+3v2PxQjAh4fNaft0awRGPL41DRROnFwt6bZazv59SYNo3dBRjv5mvukhjABK8kZgxftIT7L+wWIaKYSFZKdd6hkjaP/rzJIH0c73PipaeggjgBKwONKbkqp4hEYKH06qal0/3XPRZyUPok4XzvNJD2EEUPxUsHikVyNIKPpEGiqEhWQLPjG9pFTVsJIGUXkJfbHSQxgBlKCieGKvRlDbX+xEQ4UsV6jtaJqZjKeMQB73UOogmlm6rCjpIYwAik1tuVbTqxGYkcgm1j9sorFCVEh2yEmm17TyujtLHkTlr/xipIcwAigyTTLOR/pSUtVeoLHCQ+vvbvKcEXT869WSB1GnBplreggjgOKuD2gvROzI+sdX0GAhKiR79hXPGYGdazBdD6IDtjMzqQbX00MYARSZK2wZgbzVnsYKD5lEyn76Y49D83uWUW/7WfXDDil5EG1/+B+up4cwAijqQnGZvq8tI+i6zL6VRgtBIdnOB9j/xevgDoJCHN/QcuYVJQ+iTcef7Sw9dPP9GAF4mdZ1LqtnnQAkTk7b7Hxnfv71CjfdZz+o/mVGyYOo3FElDdC2WS5dZibVSowA/L0+8O0dxvoFNFzwab/7bwUNzIU0nvRHiz0RRDuen+PoGfWjxmIE4NWD5i5wZATUE4QDedOYXbWe+4f8U1G7H2I/4mUyZkqvKXkQdXKPc9YwrbcejAA8WT9gxXVHRmBGIhtb/2GCxgvyoVNDHZ2937DfMfk/t3ygmVnZZn/z0OhTSh5E6wYNd/QMp+khjACKRELG9YhTce5QsGk44DhHAUjmywtynMXb8+2/hVx1iyeCaHree66lh5x+h87Z81yDeRHi84V63kaq/YoGDHAh2aWT7OfrF39euAPu7nvMfmHZ83M8YQStV0x2LT3k9Du4KeZFgLeNWvE8JyNoKKvsZ/2BNI0Y0EKymS/ZD8iPP1ew58r7jm2nWVINvaZZimUETu9rcJIewgigCKRlPI/kKusPzKURA1pItqzWformyhsLl5L66dHO0iw7H+CJ/Lp8K3IjPYQRQBGYG8lHhiIuohGDh9NbuBqPOLVgzzbiOzg67bR5/MWeMIK2G6e6kh7CCMD9baPioryMIFkuBtGQASwkO/E3jgKE3DlTyOfLy2dsB9R7H/GEEchdU26khzACcB0rjkfyVTKqLaExg0XbrdPsB7RvkoVfn5j+rP1dMu9/7I2tl+VVZmaFUfD0EEYArmLF70ghlIyKSTRosHCyHbLjhbmF37F0uYNdOOl0Np3khT34bdNmOLtX4YZ7MAIosRGISYUygmE0aIDyhbHBptneYT+YTZpS8M/QePg4Z6d6HnyCJ4yg6cjTnaWHlizFCKDURjCsIEZgRiIbWX/wCxo1IIVk+/7SUXBoPuHcgn+GVPWejj6D3MfvBSMwKgabmZaVzkxsxBiMAErFFzJ+Rwol0kPBoeXC65zluXc50J3tq8sT9tNTT73smeMZnNRf2HmjwgjA82kh0kMBLCSb8ayD14HWnC9lL+SpnnKR1itGILezFjI9hBGA59NC66WHvqJxAQD8gPZ1QdNCax1CN5nGBQDwxSFzkyNuiDsKAAD8geO7BxyuFSygkQEAPL02sCDiphJRcTENDQDgXWScdtUIUv0rBtDQAADeJRUbGIu4raSizaaxAQA8uVtodqQYsh40jsYGAPCkEYwrjhEIsZX1wGYaHADAUzTL+BwplpJR7T4aHQDAS7UD+v2RYspQK4fT8AAA3kHG5UixZT34YxofAMATfOzKkRJ932esX0DjAwB44G1AERdGSqEVsdi21gfooBMAAEpKh4zHkVLJ+gDT6YTiUaxjl916jl+OXC7452xsNjO1htn57gKzY+YL5sprbzcbjzjVNMROnhkrHG/ta6ZHSqnaqPYTOgEjwAhyU6at3ex8epbZNPbMgt/7gBGE6UgJbZ+SGkHXPQUf0hkYAUaQn9Iff2o2/mICRgBO+bAki8Qbpof0s+gMjAAjKIzaH3vGNLQdMQKwiX5WxAsy4vGtqTTGCDCCAr4dfLjIrBu8N0YAfVYSp2Kx70e8IusDTaFTMAKMoIDrB59+YZnBCIwAemNKxEtKRSuH0ikYAUZQ4DeDN983jQHVGAF0Syqq7xDxmgxFvEznYAQYQWHVduNUjAA23CmkiFkRLyqhisPoIIwAIyiwOtNm/bCfYQSwrhFY8daTRmBGIhtbH3AxnYQRYAQF9oJnXsEIYG0Wy3gb8aoSij6RTsIIMILCq37XgzAC8NaW0R4rjftVbWl90Ho6CiMo5ef3Sjsb8aFmauAws2HPw8zmk88326bNMM2GptzqC+58yJNjBYpOg4yzEa8rqYob6CyMACPoYaeHXmO23/VX59tJv17h6BgKjCCgWPE14gcZ/ePl1gfupNMwAoygZ1ouut6xGTT89GiMINx0yvga8YsSiniATsMIMILe6XjqZUfPab1iMkYQ7i2jD0b8JEOJD6bjMAKMoHfqdz/E0XM6np+DEYQYQ6kYEvGbrA/+DJ2HEWAEvSPvKLC9TrCsFiMIL89G/KhaRYyk8zACjKB3ZOWwE9m9zAYjCBby7peIX5VU9DfoRIwAI+gZua3U0YLx3kdgBOGrG3gj4mclVG00nYgRYAQ903DgcY6eJa+4xAjCtkisj/G1EWSPnYiKBXQmRoAR9LBgvNN+jp7VMuESjCBMWPHT08dJ2N5BpGpj6VCMACPoucDM0RbSC67FCMK0U0jVfxkJgiw32yShiEV0KkaAERTACK68ESMIT93AIjMyctNIUJRQ9RPoWIwAI+iGAds5epb8bBhBWI6T0E+MBElmTc1m1hf7gs7FCDCC9V79Y4MxAuiOL8zq6s0jQZMR1SfQuRgBRpBnaujSSRhBGNYGrHgZCaKku/FWgBFgBOsZQeUuLBZDON4GeCvACDCCHraP7nKgs+2jp7J9lLcB3gowAowgWAVlB5/grKDs8HEYAW8D/ldS0cbR2RgBRtB1xMT43zp6lnyDwAh4GwhAXcHITakrwAgwgq5D525/wNmhc7HBGEGQ6wZqajaLhEXUFWAEGMEq0guX2H5O+sNFHEMdZCOw4mIkTJJvBYYiPqHzMYIwG0HDqLGOntN27yMYAVXEAdtBxBlEGEGYjUCtMjvnzHP0nOZTLsAIAnumkDY2EkaZkchGVgO8wyDACEJnBGql2Tb5XkfPMDs6szUHGEEgeScQJ4zm/FagxA9iELgXoIolv3x+WcVb6iBaX7O/2fnMK44/e8fMl3w1Vuy2Nci7iOMHRcKupKLNZjBgBH42goaDju+RprFnms3jLzZX/ukus/PVd3L+7I2HnoQRBPK+AX1OBFlvBeXxvRgQGIGfjcBtSQPx21jBCOyuDVQOxwXWvBXoTzMoMAKMoLs9o2mzYfjhGEEweYbov+5awWCrUTIMDIwAI1hXK6+5zZdjBSPok4yhVAwh+q//VhAVUxkcGAFGsFZK6JlXzGR5FUYQzEtn7ifqd28EitVArQwSjAAjsExg1uumUTHEt2MFI+iVVhnviPo9FpmJaxgkGEHYjaBj+rN5mQBG4Pkq4muJ9r0ZQTy+tdVQCQYLRhBGI8i0rjRbz7s6W3Dm97GCEfRIIhWLfZ9o39eBdIo+kcGCEYTNCNKfLDHrdtg3MGMFI+ipbkCcTZS3c/REdfXmHFPtfqFTb7Q/8ARGUOy3gRVGzgvDGIFvWByKS2cK+FYwhkHDWUNhe/Nq/NmJvjxKG+yuDehjiO6OzUDMYvBgBL5uZ7XKzCxP2P47bfc8jBEEFm02UT0H1fYXO1FkhhH4vZ3bpj5akvQQRuCt4jEZz4jqOdcWaPcxiDACP7dz489PLUl6CCOgeCw4bwVqVZnVkE0MJozAr+1sxAaZZlNL0dNDGIFnaJZxjGie71uBql/GYMII/NzOHU88X/T0EEbgGS4nihdASxXlu1ZjfsaAwgj82s7yislip4cwAk/wuYxfRPHCnUP0cwYVRuDXdpZXTJqdafvpoTsexAiCUTx2JNG70MdPKOJljAAj8Gs7y0PkbKeHvl6R3XqKEfj6PKFZRG1XjCB7Z0EnRoAR+LGdW8+/xllV+P7HYgT+pZO7Btx9K7gVI8AI/NjOdUNHOfqb+aaHMIISvg1Exe1EaxdVrwz6gdXQSYwAI/BjO3e+91HR0kMYQckwZJwiWrv9VhDVJ2AEGIEf21leO1ms9BBGUBoMVZxGlC6CzEhk42RUvIkRYAR+a2d5CX2x0kMYQUkWiN+24tMmROkiKaHou4XxHCKMwP/tnFm6rCjpIYyg+OcJybhEdC52bYEipmAEGIHf2ln+yi9GeggjKDpTiMolUENZZT+5MIMRYAR+aufGQ04qSnoIIyjuArGMR0RlFo4xAozAHgO2MzOpBtfTQxhBEReIrThENGbhGCPACBzR/vA/XE8PYQRFO0biTRmHiMYlVq0a39nqkDRGgBH4pZ2bjj/bWXro5vsxAq8uEKvxXYjCVBxjBBiB81SCtqOZaWu3nx5ausxMqpUYgddSQlbcIfp6aQeREFtZHbMMI8AI/NLOHc/PcfSM+lFjMQJvscyIx7cm+nrNDKLiSIwAI/BLO7f8+kpn6aGb7sMIPFVBrI0l6nq3tuB5jAAj8EM71w0a7ugZTtNDGIGrC8T/JNp6WHWq0KyOasUIgmEEnbPnuYYX2jk97z3X0kN+aWsfHiOxUsYZoq3HlVD1SzGCYBiBm/JCO7deMdm19JBf2tp3qPplRFk/1BbU1Gxmddh8jAAj8LoR1O92sGvpIYzAFeab1dWbE2X9slZQpu0RxEPpMIJgGUE2PbT4c1fSQxhB4WsGjDJtT6Kr31JEUXEbRoAReN0I2m6c6kp6CCMo8NqAqt1BVPVvbcGXGAFG4GUjaNjvGFfSQxhBIdG+lvGEqOrXtwJFOxwjwAi8bATJ8iozs8IoeHoIIyjkTiF9DNHU97UF+uMYAUbgWSOQ6aFpMxw9b+UN92AExTtG4gmiaABUq1aVWR1ahxFgBF41gqYjT3eWHlqyFCMoDvUJpTJKFA3MW4E4BSPACLxqBEbFYDPTstLRMxtGjMEI3F8bGEf0DFJtQSSykdWxL2EEGIEXjSB7CN3Ml5ylhyZNwQjcTQm9LOMG0TNgqhtQVWF1cAtGgBF40Qiax19c0PQQRpAXLRwjEeQUUVSczaFZAND7MRLiXKJlsFNEm1gd/RqDHQB64HUZJ4iWQX8rKBeDrM5uY8ADwHq0Gaq2PVEyJEqo2iUMegBY7xiJS4iOpIgAILyXzbxpRkZuSnQM21tBWeVAeckEkwAg5G8CMg6Ui2qiYkhlKPr5TASAkN8/bMUBoiEpIlJEAOHlNXYJoUhtNF7p90IzAMgtJSRTxERBtGpLKYVmACEsHNN+Q/RDa6eINk5G9TlMDoCw7BLS58h5T/RD62iFEtdJEQGEghY534l6qPstpYo+kUkCEPiagbOJdqi3FNFG8vhZJgsAKSEUYnUdV93EpAEIHE1yfhPlkC0ZUX0CkwYgYIVjqjiN6IYcpYiSivYUkwcgMDzDjWPI+S6iWGxba/DUMoEAfE+idsB2/YlqKLddRKo2mkkE4PcKYn0M0QzlJWsg3ctkAvDtVtGpRDGUf4roR9XfswbUYiYVgO/4tLZf1ZZEMVSYt4IybQ9rUKWZWAC+IW2UaXsSvVBhzSCqXcXkAvDNVtGriVqo8FtKa2o2swbYPCYZgOePl35bzleiFnJnF1FZ5UAOpgPwNK2JAfp2RCvkrhmo4gwmG4BX3wa0XxOlkPspomzVsXiWSQfgOZ6jehgVTbJKUVYrMvEAPEOyVq0qIzqhYqeIDmPyAXgkJaRqo4lKqDRmEBW3MQkBSmwCUXE70QiVTEtisS2sgfgekxGgZHywVFG+SzRCJVWyXAySW9aYkADF3ypqqNr2RCHkCRlR/VQmJUDRq4dPJ/ogb70ZKPrjTE6AIpmAIp4k6iDPqV4Z9ANrgC5lkgK4zpcN0YE/JOogTyql6iM4pRTA3VNFaxUxkmiDvJ0iimq/Z7ICuJQSiup/IMogz8uMRDaxBuxcJi1AwfmPGRm5KVEG+SNF1L9igDVoU0xcgIJRn4oNjBFdkM9SROJIJi9AgVC1o4gqyJ9moOh3MYkB8uYeognyrWTpuzWI32ciA+TM+xwhgXyvrlvNmpjQAI5pkvOHKIICIUMRxzKpARxXDx9L9EABWy8Q9zC5AVgXQKwXsF4AwNHSiPUC1gsAeqFZHu1OtECsFwCE9spJ/QSiBGK9ACC0RWP6/UQHxHoBQHiZv3ybIf9LdECsFwCwLoAQ6wUArAsgFL71gnsJBhBaotp9RAEUei2JxbawJsQ7BAUIH/p/qRdAqEt1qtC4vwDCdr/ACkUTzH6E1lKtKg4lOEB41gW00cx6hLpRQhHXEiQg+GjXM9sR6kHyvmNDES8TKCDAvMK9wwj1oW8qKraxfjF9TcCAALJsRSy2LbMcIRsyyuN7WZOmg8ABAaIzpeojmN0IOVBSFecSPCBAl8+fx6xGyPl6wUbWBJpOEIEA1As8LsczsxqhHFTbr2pLayItJJCAj6+b/MSIx7dmNiOUz3qBqm2fPZSLoAL+o8VQKoYwixEqhBko+tEEFfBd0VhUHMfsRaiASqpiMsEFfFQ0dhOzFqECSxbhUGwGvikaq6nZjFmLkAtaVWwmlhJowMN8RdEYQi4roVTuak22NgIOeJD2hKLvxixFqBjrBYo4maADHrxkZjyzE6HimsHdBB/wEPcyKxEqsszq6s2tyfc6AQg8UDn8hinEd5iVCJVmvSCajIrlBCIoId8kyzSV2YhQCZVSxN6cVAqlOlG0Nqr9hFmIkCfeDPSJBCUo/uKwOIfZh5CHZChiGsEJinZ8hCIeYtYh5DEticW2sCboPIIUuH6iqCreWqoo32XWIeTJFBGLx8DiMEKhl2UEu8sKTwIWuFE5LK9RZZYh5AczoPIYqBxGCBmKuIXgBQW8W+B2ZhVCPpM8Bphjq6Fgx0pXV2/OrELIh2ooq+xnTeLPCGSQB58v30b7MbMJIR8rFa0cyp3HkOudw6kysSOzCKEAKBkVvyCogfN6AW0sswehAMlQxdUEN3BQOfxHZg1CAZMZiWxsRMXfCXJgwwT+YY2XTZg1CAVQK35U/T1ror9HsINemJ8UYitmC0IBVio2MGb94ltBwINuSNQNqKpgliAUhvWC8vheHEMB6x8fkVL1EcwOhEKkpKqfSPCDb9HGMSsQCqMZRMUkAiBYJnAjswGhkEruDEkq+tMEwlDzLDuEEAr7W4EQW2V3ihAQw/gm8FEqFvs+swAhFKlThWYFhiSBMVQYK5S4zuhHCK1RrSJGspMoNHQkoto+jHqE0IZpoqg2niAZgjOEovoERjtCqBczEH8mWAZ6XeAmRjlCqFfJHSQJVcwkYAbSBJ5ihxBCyJa6ziR6h8AZJPT/1var2pLRjRBykiJSrF+QXxNAg3DpvFhu9I+XM6oRQo5VW67VyFuqCKb+vmUsoVTuymhGCOWshKKPIZj6+m3gSEYxQihvGYq4kKDqwwtmouJiRi9CqGCyfllOJbj6qFZAEdMYtQihgsqsrt48oYhZBFk/pIP0ObK/GLUIoYKrXhn0AyvQfEyw9fSbwCcNZZX9GK0IIdfUdUBdLUHXm1dN1kbjlYxShJDrSpZpe1hBp5XA6yna5BWkjE6EUPHMICp+QfD1UEpI1cYyKhFCRRfbStkmihBCkaSi30UwLin3MgoRQiWVGRm5qRWMniMglwBVe8GsqdmMUYgQKv1bQfbeY/2/BOei8oERj2/N6EMIeccMyjSV00qLxrJU/4oBjDqEkOeUKhM7WkGqkUDtKs3yVFhGG0LIu28GinaAFaw6CdiukDai+sGMMoSQ981AFScRtN04Q0gbz+hCCPnozUD8juBdyIIxcTWjCiHkK5mRyEbWL9j7COIFKBhTxAOyPRlVCCH/mUF19ebJqPgnwTyvS+df5EhphJC/U0TZGgPxLgE9J96nVgAhFAgllMqoFdS+ILA74kvrbUph9CCEgvNmUC4GWcGtngBvi/pUtHIoowYhFDilFLG3FeTaCfS90p6IxkcxWhBCwX0zWHWPQYaA39M2Uf2XjBKEUPDNQNHPIuh3d5qoOJfRgRAKkRlo1xP81zGByYwKhFCoJAukEop4EBOQR0eIhykYQwiF0wwoOJO8RMEYQijcKSIhtrLeDN4OadXwfykYQwghSytisW2twPhpyIzg81q1qozeRwih1WagxHUrONaGxARqa8uqquh1hBBaT7VqfOcQ3HDWklAqd6W3EUKoByXL9Z8GuPq4Xd7gRi8jhFBfZqBqRwWx+thQxLH0LkII2VRC0ScGrFbgHHoVIYScvhlEtauCccOYdh29iRBCOSh73aUi7vX5hfP3UTWMEEL5mcEmhiKe8Oldw/+Qn59eRAihfM1AiO9YZvAvfxmBNvvrsrL/ofcQQqhAkkcxGKp4yydG8C5HRyCEkAtq3Fb8yAqyCz2eDlq0fBvtx/QWQgi59WbQP16evdjdm0bwVV25HqeXEELIZSXLxSAr6CY8ZgIpQ4kPpncQQqhISij6bh46l6glGRW70ysIIVRsM4hq+yQUsbLU5wclyvR96Q2EECqRalVxqBWMO0pkAumEoh1OLyCEUIllKOKYUhxSZ72RHE/rI4SQV8xAFacV+fygX9PqCCHkvTeDi4piAqp+Ka2NEEIeVUIRf3T5OOk/08oIIeR1M1C1O1wygrs5SRQhhHwgK1hvbL0ZPFTgN4GHOUkUIYR8ZQYjN02oYmaBThJ9yqyu3pxWRQghn2lJLLZFvsdXy/+e46QRQsjHkkHcCuhzczSC12v7VW1JKyKEkM8l7waQQd3Rm4Aq3uJOAYQQCpDqysv/zwrw79s0gvfl3Qe0GkIIBUxdF9vM52IZhBAKsZJRochg35MJyP+dVkIIoRCYQTe3nH25QtEErYMQQiGRDPprmQEmgBBCITaDd2qj8UpaA4VV/w+uM+zFoPEEXAAAAABJRU5ErkJggg==;rotation=0;" parent="1" vertex="1">
                    <mxGeometry x="174.4" y="365" width="91.2" height="120.02" as="geometry"/>
                </mxCell>
            </root>
        </mxGraphModel>
    </diagram>
</mxfile>